<svg width="2048" height="2048" viewBox="0 0 2048 2048" fill="none" xmlns="http://www.w3.org/2000/svg">
<g clip-path="url(#cl1)">
<rect width="2048" height="2048" fill="white"/>
<!-- Col 1: 1 -->
<rect x="1" y="1" width="126" height="126" rx="36" ry="36" fill="url(#gr1)" />
<rect x="1" y="129" width="126" height="126" rx="36" ry="36" fill="url(#gr1)" />
<rect x="1" y="257" width="126" height="126" rx="36" ry="36" fill="url(#gr1)" />
<rect x="1" y="385" width="126" height="126" rx="36" ry="36" fill="url(#gr1)" />
<rect x="1" y="513" width="126" height="126" rx="36" ry="36" fill="url(#gr1)" />
<rect x="1" y="641" width="126" height="126" rx="36" ry="36" fill="url(#gr1)" />
<rect x="1" y="769" width="126" height="126" rx="36" ry="36" fill="url(#gr1)" />
<rect x="1" y="897" width="126" height="126" rx="36" ry="36" fill="url(#gr1)" />
<rect x="1" y="1025" width="126" height="126" rx="36" ry="36" fill="url(#gr1)" />
<rect x="1" y="1153" width="126" height="126" rx="36" ry="36" fill="url(#gr1)" />
<rect x="1" y="1281" width="126" height="126" rx="36" ry="36" fill="url(#gr1)" />
<rect x="1" y="1409" width="126" height="126" rx="36" ry="36" fill="url(#gr1)" />
<rect x="1" y="1537" width="126" height="126" rx="36" ry="36" fill="url(#gr1)" />
<rect x="1" y="1665" width="126" height="126" rx="36" ry="36" fill="url(#gr1)" />
<rect x="1" y="1793" width="126" height="126" rx="36" ry="36" fill="url(#gr1)" />
<rect x="1" y="1921" width="126" height="126" rx="36" ry="36" fill="url(#gr1)" />
<!-- Col 2: 129 -->
<rect x="129" y="1" width="126" height="126" rx="36" ry="36" fill="url(#gr1)" />
<rect x="129" y="129" width="126" height="126" rx="36" ry="36" fill="url(#gr1)" />
<rect x="129" y="257" width="126" height="126" rx="36" ry="36" fill="url(#gr1)" />
<rect x="129" y="385" width="126" height="126" rx="36" ry="36" fill="url(#gr1)" />
<rect x="129" y="513" width="126" height="126" rx="36" ry="36" fill="url(#gr1)" />
<rect x="129" y="641" width="126" height="126" rx="36" ry="36" fill="url(#gr1)" />
<rect x="129" y="769" width="126" height="126" rx="36" ry="36" fill="url(#gr1)" />
<rect x="129" y="897" width="126" height="126" rx="36" ry="36" fill="url(#gr1)" />
<rect x="129" y="1025" width="126" height="126" rx="36" ry="36" fill="url(#gr1)" />
<rect x="129" y="1153" width="126" height="126" rx="36" ry="36" fill="url(#gr1)" />
<rect x="129" y="1281" width="126" height="126" rx="36" ry="36" fill="url(#gr1)" />
<rect x="129" y="1409" width="126" height="126" rx="36" ry="36" fill="url(#gr1)" />
<rect x="129" y="1537" width="126" height="126" rx="36" ry="36" fill="url(#gr1)" />
<rect x="129" y="1665" width="126" height="126" rx="36" ry="36" fill="url(#gr1)" />
<rect x="129" y="1793" width="126" height="126" rx="36" ry="36" fill="url(#gr1)" />
<rect x="129" y="1921" width="126" height="126" rx="36" ry="36" fill="url(#gr1)" />
<!-- Col 3: 257 -->
<rect x="257" y="1" width="126" height="126" rx="36" ry="36" fill="url(#gr1)" />
<rect x="257" y="129" width="126" height="126" rx="36" ry="36" fill="url(#gr1)" />
<rect x="257" y="257" width="126" height="126" rx="36" ry="36" fill="url(#gr1)" />
<rect x="257" y="385" width="126" height="126" rx="36" ry="36" fill="url(#gr1)" />
<rect x="257" y="513" width="126" height="126" rx="36" ry="36" fill="url(#gr1)" />
<rect x="257" y="641" width="126" height="126" rx="36" ry="36" fill="url(#gr1)" />
<rect x="257" y="769" width="126" height="126" rx="36" ry="36" fill="url(#gr1)" />
<rect x="257" y="897" width="126" height="126" rx="36" ry="36" fill="url(#gr1)" />
<rect x="257" y="1025" width="126" height="126" rx="36" ry="36" fill="url(#gr1)" />
<rect x="257" y="1153" width="126" height="126" rx="36" ry="36" fill="url(#gr1)" />
<rect x="257" y="1281" width="126" height="126" rx="36" ry="36" fill="url(#gr1)" />
<rect x="257" y="1409" width="126" height="126" rx="36" ry="36" fill="url(#gr1)" />
<rect x="257" y="1537" width="126" height="126" rx="36" ry="36" fill="url(#gr1)" />
<rect x="257" y="1665" width="126" height="126" rx="36" ry="36" fill="url(#gr1)" />
<rect x="257" y="1793" width="126" height="126" rx="36" ry="36" fill="url(#gr1)" />
<rect x="257" y="1921" width="126" height="126" rx="36" ry="36" fill="url(#gr1)" />
<!-- Col 4: 385 -->
<rect x="385" y="1" width="126" height="126" rx="36" ry="36" fill="url(#gr1)" />
<rect x="385" y="129" width="126" height="126" rx="36" ry="36" fill="url(#gr1)" />
<rect x="385" y="257" width="126" height="126" rx="36" ry="36" fill="url(#gr1)" />
<rect x="385" y="385" width="126" height="126" rx="36" ry="36" fill="url(#gr1)" />
<rect x="385" y="513" width="126" height="126" rx="36" ry="36" fill="url(#gr1)" />
<rect x="385" y="641" width="126" height="126" rx="36" ry="36" fill="url(#gr1)" />
<rect x="385" y="769" width="126" height="126" rx="36" ry="36" fill="url(#gr1)" />
<rect x="385" y="897" width="126" height="126" rx="36" ry="36" fill="url(#gr1)" />
<rect x="385" y="1025" width="126" height="126" rx="36" ry="36" fill="url(#gr1)" />
<rect x="385" y="1153" width="126" height="126" rx="36" ry="36" fill="url(#gr1)" />
<rect x="385" y="1281" width="126" height="126" rx="36" ry="36" fill="url(#gr1)" />
<rect x="385" y="1409" width="126" height="126" rx="36" ry="36" fill="url(#gr1)" />
<rect x="385" y="1537" width="126" height="126" rx="36" ry="36" fill="url(#gr1)" />
<rect x="385" y="1665" width="126" height="126" rx="36" ry="36" fill="url(#gr1)" />
<rect x="385" y="1793" width="126" height="126" rx="36" ry="36" fill="url(#gr1)" />
<rect x="385" y="1921" width="126" height="126" rx="36" ry="36" fill="url(#gr1)" />
<!-- Col 5: 513 -->
<rect x="513" y="1" width="126" height="126" rx="36" ry="36" fill="url(#gr1)" />
<rect x="513" y="129" width="126" height="126" rx="36" ry="36" fill="url(#gr1)" />
<rect x="513" y="257" width="126" height="126" rx="36" ry="36" fill="url(#gr1)" />
<rect x="513" y="385" width="126" height="126" rx="36" ry="36" fill="url(#gr1)" />
<rect x="513" y="513" width="126" height="126" rx="36" ry="36" fill="url(#gr1)" />
<rect x="513" y="641" width="126" height="126" rx="36" ry="36" fill="url(#gr1)" />
<rect x="513" y="769" width="126" height="126" rx="36" ry="36" fill="url(#gr1)" />
<rect x="513" y="897" width="126" height="126" rx="36" ry="36" fill="url(#gr1)" />
<rect x="513" y="1025" width="126" height="126" rx="36" ry="36" fill="url(#gr1)" />
<rect x="513" y="1153" width="126" height="126" rx="36" ry="36" fill="url(#gr1)" />
<rect x="513" y="1281" width="126" height="126" rx="36" ry="36" fill="url(#gr1)" />
<rect x="513" y="1409" width="126" height="126" rx="36" ry="36" fill="url(#gr1)" />
<rect x="513" y="1537" width="126" height="126" rx="36" ry="36" fill="url(#gr1)" />
<rect x="513" y="1665" width="126" height="126" rx="36" ry="36" fill="url(#gr1)" />
<rect x="513" y="1793" width="126" height="126" rx="36" ry="36" fill="url(#gr1)" />
<rect x="513" y="1921" width="126" height="126" rx="36" ry="36" fill="url(#gr1)" />
<!-- Col 6: 641 -->
<rect x="641" y="1" width="126" height="126" rx="36" ry="36" fill="url(#gr1)" />
<rect x="641" y="129" width="126" height="126" rx="36" ry="36" fill="url(#gr1)" />
<rect x="641" y="257" width="126" height="126" rx="36" ry="36" fill="url(#gr1)" />
<rect x="641" y="385" width="126" height="126" rx="36" ry="36" fill="url(#gr1)" />
<rect x="641" y="513" width="126" height="126" rx="36" ry="36" fill="url(#gr1)" />
<rect x="641" y="641" width="126" height="126" rx="36" ry="36" fill="url(#gr1)" />
<rect x="641" y="769" width="126" height="126" rx="36" ry="36" fill="url(#gr1)" />
<rect x="641" y="897" width="126" height="126" rx="36" ry="36" fill="url(#gr1)" />
<rect x="641" y="1025" width="126" height="126" rx="36" ry="36" fill="url(#gr1)" />
<rect x="641" y="1153" width="126" height="126" rx="36" ry="36" fill="url(#gr1)" />
<rect x="641" y="1281" width="126" height="126" rx="36" ry="36" fill="url(#gr1)" />
<rect x="641" y="1409" width="126" height="126" rx="36" ry="36" fill="url(#gr1)" />
<rect x="641" y="1537" width="126" height="126" rx="36" ry="36" fill="url(#gr1)" />
<rect x="641" y="1665" width="126" height="126" rx="36" ry="36" fill="url(#gr1)" />
<rect x="641" y="1793" width="126" height="126" rx="36" ry="36" fill="url(#gr1)" />
<rect x="641" y="1921" width="126" height="126" rx="36" ry="36" fill="url(#gr1)" />
<!-- Col 7: 769 -->
<rect x="769" y="1" width="126" height="126" rx="36" ry="36" fill="url(#gr1)" />
<rect x="769" y="129" width="126" height="126" rx="36" ry="36" fill="url(#gr1)" />
<rect x="769" y="257" width="126" height="126" rx="36" ry="36" fill="url(#gr1)" />
<rect x="769" y="385" width="126" height="126" rx="36" ry="36" fill="url(#gr1)" />
<rect x="769" y="513" width="126" height="126" rx="36" ry="36" fill="url(#gr1)" />
<rect x="769" y="641" width="126" height="126" rx="36" ry="36" fill="url(#gr1)" />
<rect x="769" y="769" width="126" height="126" rx="36" ry="36" fill="url(#gr1)" />
<rect x="769" y="897" width="126" height="126" rx="36" ry="36" fill="url(#gr1)" />
<rect x="769" y="1025" width="126" height="126" rx="36" ry="36" fill="url(#gr1)" />
<rect x="769" y="1153" width="126" height="126" rx="36" ry="36" fill="url(#gr1)" />
<rect x="769" y="1281" width="126" height="126" rx="36" ry="36" fill="url(#gr1)" />
<rect x="769" y="1409" width="126" height="126" rx="36" ry="36" fill="url(#gr1)" />
<rect x="769" y="1537" width="126" height="126" rx="36" ry="36" fill="url(#gr1)" />
<rect x="769" y="1665" width="126" height="126" rx="36" ry="36" fill="url(#gr1)" />
<rect x="769" y="1793" width="126" height="126" rx="36" ry="36" fill="url(#gr1)" />
<rect x="769" y="1921" width="126" height="126" rx="36" ry="36" fill="url(#gr1)" />
<!-- Col 8: 897 -->
<rect x="897" y="1" width="126" height="126" rx="36" ry="36" fill="url(#gr1)" />
<rect x="897" y="129" width="126" height="126" rx="36" ry="36" fill="url(#gr1)" />
<rect x="897" y="257" width="126" height="126" rx="36" ry="36" fill="url(#gr1)" />
<rect x="897" y="385" width="126" height="126" rx="36" ry="36" fill="url(#gr1)" />
<rect x="897" y="513" width="126" height="126" rx="36" ry="36" fill="url(#gr1)" />
<rect x="897" y="641" width="126" height="126" rx="36" ry="36" fill="url(#gr1)" />
<rect x="897" y="769" width="126" height="126" rx="36" ry="36" fill="url(#gr1)" />
<rect x="897" y="897" width="126" height="126" rx="36" ry="36" fill="url(#gr1)" />
<rect x="897" y="1025" width="126" height="126" rx="36" ry="36" fill="url(#gr1)" />
<rect x="897" y="1153" width="126" height="126" rx="36" ry="36" fill="url(#gr1)" />
<rect x="897" y="1281" width="126" height="126" rx="36" ry="36" fill="url(#gr1)" />
<rect x="897" y="1409" width="126" height="126" rx="36" ry="36" fill="url(#gr1)" />
<rect x="897" y="1537" width="126" height="126" rx="36" ry="36" fill="url(#gr1)" />
<rect x="897" y="1665" width="126" height="126" rx="36" ry="36" fill="url(#gr1)" />
<rect x="897" y="1793" width="126" height="126" rx="36" ry="36" fill="url(#gr1)" />
<rect x="897" y="1921" width="126" height="126" rx="36" ry="36" fill="url(#gr1)" />
<!-- Col 9: 1025 -->
<rect x="1025" y="1" width="126" height="126" rx="36" ry="36" fill="url(#gr1)" />
<rect x="1025" y="129" width="126" height="126" rx="36" ry="36" fill="url(#gr1)" />
<rect x="1025" y="257" width="126" height="126" rx="36" ry="36" fill="url(#gr1)" />
<rect x="1025" y="385" width="126" height="126" rx="36" ry="36" fill="url(#gr1)" />
<rect x="1025" y="513" width="126" height="126" rx="36" ry="36" fill="url(#gr1)" />
<rect x="1025" y="641" width="126" height="126" rx="36" ry="36" fill="url(#gr1)" />
<rect x="1025" y="769" width="126" height="126" rx="36" ry="36" fill="url(#gr1)" />
<rect x="1025" y="897" width="126" height="126" rx="36" ry="36" fill="url(#gr1)" />
<rect x="1025" y="1025" width="126" height="126" rx="36" ry="36" fill="url(#gr1)" />
<rect x="1025" y="1153" width="126" height="126" rx="36" ry="36" fill="url(#gr1)" />
<rect x="1025" y="1281" width="126" height="126" rx="36" ry="36" fill="url(#gr1)" />
<rect x="1025" y="1409" width="126" height="126" rx="36" ry="36" fill="url(#gr1)" />
<rect x="1025" y="1537" width="126" height="126" rx="36" ry="36" fill="url(#gr1)" />
<rect x="1025" y="1665" width="126" height="126" rx="36" ry="36" fill="url(#gr1)" />
<rect x="1025" y="1793" width="126" height="126" rx="36" ry="36" fill="url(#gr1)" />
<rect x="1025" y="1921" width="126" height="126" rx="36" ry="36" fill="url(#gr1)" />
<!-- Col 10: 1153 -->
<rect x="1153" y="1" width="126" height="126" rx="36" ry="36" fill="url(#gr1)" />
<rect x="1153" y="129" width="126" height="126" rx="36" ry="36" fill="url(#gr1)" />
<rect x="1153" y="257" width="126" height="126" rx="36" ry="36" fill="url(#gr1)" />
<rect x="1153" y="385" width="126" height="126" rx="36" ry="36" fill="url(#gr1)" />
<rect x="1153" y="513" width="126" height="126" rx="36" ry="36" fill="url(#gr1)" />
<rect x="1153" y="641" width="126" height="126" rx="36" ry="36" fill="url(#gr1)" />
<rect x="1153" y="769" width="126" height="126" rx="36" ry="36" fill="url(#gr1)" />
<rect x="1153" y="897" width="126" height="126" rx="36" ry="36" fill="url(#gr1)" />
<rect x="1153" y="1025" width="126" height="126" rx="36" ry="36" fill="url(#gr1)" />
<rect x="1153" y="1153" width="126" height="126" rx="36" ry="36" fill="url(#gr1)" />
<rect x="1153" y="1281" width="126" height="126" rx="36" ry="36" fill="url(#gr1)" />
<rect x="1153" y="1409" width="126" height="126" rx="36" ry="36" fill="url(#gr1)" />
<rect x="1153" y="1537" width="126" height="126" rx="36" ry="36" fill="url(#gr1)" />
<rect x="1153" y="1665" width="126" height="126" rx="36" ry="36" fill="url(#gr1)" />
<rect x="1153" y="1793" width="126" height="126" rx="36" ry="36" fill="url(#gr1)" />
<rect x="1153" y="1921" width="126" height="126" rx="36" ry="36" fill="url(#gr1)" />
<!-- Col 11: 1281 -->
<rect x="1281" y="1" width="126" height="126" rx="36" ry="36" fill="url(#gr1)" />
<rect x="1281" y="129" width="126" height="126" rx="36" ry="36" fill="url(#gr1)" />
<rect x="1281" y="257" width="126" height="126" rx="36" ry="36" fill="url(#gr1)" />
<rect x="1281" y="385" width="126" height="126" rx="36" ry="36" fill="url(#gr1)" />
<rect x="1281" y="513" width="126" height="126" rx="36" ry="36" fill="url(#gr1)" />
<rect x="1281" y="641" width="126" height="126" rx="36" ry="36" fill="url(#gr1)" />
<rect x="1281" y="769" width="126" height="126" rx="36" ry="36" fill="url(#gr1)" />
<rect x="1281" y="897" width="126" height="126" rx="36" ry="36" fill="url(#gr1)" />
<rect x="1281" y="1025" width="126" height="126" rx="36" ry="36" fill="url(#gr1)" />
<rect x="1281" y="1153" width="126" height="126" rx="36" ry="36" fill="url(#gr1)" />
<rect x="1281" y="1281" width="126" height="126" rx="36" ry="36" fill="url(#gr1)" />
<rect x="1281" y="1409" width="126" height="126" rx="36" ry="36" fill="url(#gr1)" />
<rect x="1281" y="1537" width="126" height="126" rx="36" ry="36" fill="url(#gr1)" />
<rect x="1281" y="1665" width="126" height="126" rx="36" ry="36" fill="url(#gr1)" />
<rect x="1281" y="1793" width="126" height="126" rx="36" ry="36" fill="url(#gr1)" />
<rect x="1281" y="1921" width="126" height="126" rx="36" ry="36" fill="url(#gr1)" />
<!-- Col 12: 1409 -->
<rect x="1409" y="1" width="126" height="126" rx="36" ry="36" fill="url(#gr1)" />
<rect x="1409" y="129" width="126" height="126" rx="36" ry="36" fill="url(#gr1)" />
<rect x="1409" y="257" width="126" height="126" rx="36" ry="36" fill="url(#gr1)" />
<rect x="1409" y="385" width="126" height="126" rx="36" ry="36" fill="url(#gr1)" />
<rect x="1409" y="513" width="126" height="126" rx="36" ry="36" fill="url(#gr1)" />
<rect x="1409" y="641" width="126" height="126" rx="36" ry="36" fill="url(#gr1)" />
<rect x="1409" y="769" width="126" height="126" rx="36" ry="36" fill="url(#gr1)" />
<rect x="1409" y="897" width="126" height="126" rx="36" ry="36" fill="url(#gr1)" />
<rect x="1409" y="1025" width="126" height="126" rx="36" ry="36" fill="url(#gr1)" />
<rect x="1409" y="1153" width="126" height="126" rx="36" ry="36" fill="url(#gr1)" />
<rect x="1409" y="1281" width="126" height="126" rx="36" ry="36" fill="url(#gr1)" />
<rect x="1409" y="1409" width="126" height="126" rx="36" ry="36" fill="url(#gr1)" />
<rect x="1409" y="1537" width="126" height="126" rx="36" ry="36" fill="url(#gr1)" />
<rect x="1409" y="1665" width="126" height="126" rx="36" ry="36" fill="url(#gr1)" />
<rect x="1409" y="1793" width="126" height="126" rx="36" ry="36" fill="url(#gr1)" />
<rect x="1409" y="1921" width="126" height="126" rx="36" ry="36" fill="url(#gr1)" />
<!-- Col 13: 1537 -->
<rect x="1537" y="1" width="126" height="126" rx="36" ry="36" fill="url(#gr1)" />
<rect x="1537" y="129" width="126" height="126" rx="36" ry="36" fill="url(#gr1)" />
<rect x="1537" y="257" width="126" height="126" rx="36" ry="36" fill="url(#gr1)" />
<rect x="1537" y="385" width="126" height="126" rx="36" ry="36" fill="url(#gr1)" />
<rect x="1537" y="513" width="126" height="126" rx="36" ry="36" fill="url(#gr1)" />
<rect x="1537" y="641" width="126" height="126" rx="36" ry="36" fill="url(#gr1)" />
<rect x="1537" y="769" width="126" height="126" rx="36" ry="36" fill="url(#gr1)" />
<rect x="1537" y="897" width="126" height="126" rx="36" ry="36" fill="url(#gr1)" />
<rect x="1537" y="1025" width="126" height="126" rx="36" ry="36" fill="url(#gr1)" />
<rect x="1537" y="1153" width="126" height="126" rx="36" ry="36" fill="url(#gr1)" />
<rect x="1537" y="1281" width="126" height="126" rx="36" ry="36" fill="url(#gr1)" />
<rect x="1537" y="1409" width="126" height="126" rx="36" ry="36" fill="url(#gr1)" />
<rect x="1537" y="1537" width="126" height="126" rx="36" ry="36" fill="url(#gr1)" />
<rect x="1537" y="1665" width="126" height="126" rx="36" ry="36" fill="url(#gr1)" />
<rect x="1537" y="1793" width="126" height="126" rx="36" ry="36" fill="url(#gr1)" />
<rect x="1537" y="1921" width="126" height="126" rx="36" ry="36" fill="url(#gr1)" />
<!-- Col 14: 1665 -->
<rect x="1665" y="1" width="126" height="126" rx="36" ry="36" fill="url(#gr1)" />
<rect x="1665" y="129" width="126" height="126" rx="36" ry="36" fill="url(#gr1)" />
<rect x="1665" y="257" width="126" height="126" rx="36" ry="36" fill="url(#gr1)" />
<rect x="1665" y="385" width="126" height="126" rx="36" ry="36" fill="url(#gr1)" />
<rect x="1665" y="513" width="126" height="126" rx="36" ry="36" fill="url(#gr1)" />
<rect x="1665" y="641" width="126" height="126" rx="36" ry="36" fill="url(#gr1)" />
<rect x="1665" y="769" width="126" height="126" rx="36" ry="36" fill="url(#gr1)" />
<rect x="1665" y="897" width="126" height="126" rx="36" ry="36" fill="url(#gr1)" />
<rect x="1665" y="1025" width="126" height="126" rx="36" ry="36" fill="url(#gr1)" />
<rect x="1665" y="1153" width="126" height="126" rx="36" ry="36" fill="url(#gr1)" />
<rect x="1665" y="1281" width="126" height="126" rx="36" ry="36" fill="url(#gr1)" />
<rect x="1665" y="1409" width="126" height="126" rx="36" ry="36" fill="url(#gr1)" />
<rect x="1665" y="1537" width="126" height="126" rx="36" ry="36" fill="url(#gr1)" />
<rect x="1665" y="1665" width="126" height="126" rx="36" ry="36" fill="url(#gr1)" />
<rect x="1665" y="1793" width="126" height="126" rx="36" ry="36" fill="url(#gr1)" />
<rect x="1665" y="1921" width="126" height="126" rx="36" ry="36" fill="url(#gr1)" />
<!-- Col 15: 1793 -->
<rect x="1793" y="1" width="126" height="126" rx="36" ry="36" fill="url(#gr1)" />
<rect x="1793" y="129" width="126" height="126" rx="36" ry="36" fill="url(#gr1)" />
<rect x="1793" y="257" width="126" height="126" rx="36" ry="36" fill="url(#gr1)" />
<rect x="1793" y="385" width="126" height="126" rx="36" ry="36" fill="url(#gr1)" />
<rect x="1793" y="513" width="126" height="126" rx="36" ry="36" fill="url(#gr1)" />
<rect x="1793" y="641" width="126" height="126" rx="36" ry="36" fill="url(#gr1)" />
<rect x="1793" y="769" width="126" height="126" rx="36" ry="36" fill="url(#gr1)" />
<rect x="1793" y="897" width="126" height="126" rx="36" ry="36" fill="url(#gr1)" />
<rect x="1793" y="1025" width="126" height="126" rx="36" ry="36" fill="url(#gr1)" />
<rect x="1793" y="1153" width="126" height="126" rx="36" ry="36" fill="url(#gr1)" />
<rect x="1793" y="1281" width="126" height="126" rx="36" ry="36" fill="url(#gr1)" />
<rect x="1793" y="1409" width="126" height="126" rx="36" ry="36" fill="url(#gr1)" />
<rect x="1793" y="1537" width="126" height="126" rx="36" ry="36" fill="url(#gr1)" />
<rect x="1793" y="1665" width="126" height="126" rx="36" ry="36" fill="url(#gr1)" />
<rect x="1793" y="1793" width="126" height="126" rx="36" ry="36" fill="url(#gr1)" />
<rect x="1793" y="1921" width="126" height="126" rx="36" ry="36" fill="url(#gr1)" />
<!-- Col 16: 1921 -->
<rect x="1921" y="1" width="126" height="126" rx="36" ry="36" fill="url(#gr1)" />
<rect x="1921" y="129" width="126" height="126" rx="36" ry="36" fill="url(#gr1)" />
<rect x="1921" y="257" width="126" height="126" rx="36" ry="36" fill="url(#gr1)" />
<rect x="1921" y="385" width="126" height="126" rx="36" ry="36" fill="url(#gr1)" />
<rect x="1921" y="513" width="126" height="126" rx="36" ry="36" fill="url(#gr1)" />
<rect x="1921" y="641" width="126" height="126" rx="36" ry="36" fill="url(#gr1)" />
<rect x="1921" y="769" width="126" height="126" rx="36" ry="36" fill="url(#gr1)" />
<rect x="1921" y="897" width="126" height="126" rx="36" ry="36" fill="url(#gr1)" />
<rect x="1921" y="1025" width="126" height="126" rx="36" ry="36" fill="url(#gr1)" />
<rect x="1921" y="1153" width="126" height="126" rx="36" ry="36" fill="url(#gr1)" />
<rect x="1921" y="1281" width="126" height="126" rx="36" ry="36" fill="url(#gr1)" />
<rect x="1921" y="1409" width="126" height="126" rx="36" ry="36" fill="url(#gr1)" />
<rect x="1921" y="1537" width="126" height="126" rx="36" ry="36" fill="url(#gr1)" />
<rect x="1921" y="1665" width="126" height="126" rx="36" ry="36" fill="url(#gr1)" />
<rect x="1921" y="1793" width="126" height="126" rx="36" ry="36" fill="url(#gr1)" />
<rect x="1921" y="1921" width="126" height="126" rx="36" ry="36" fill="url(#gr1)" />
</g>
<defs>
<radialGradient id="gr1" cx="0" cy="0" r="1" gradientUnits="userSpaceOnUse" gradientTransform="translate(1024 1024) scale(1377)">
<stop offset="0.25" stop-color="#C7DDF9"/>
<stop offset="1" stop-color="#FFFCFE"/>
</radialGradient>
<clipPath id="cl1">
<rect width="2048" height="2048" fill="white"/>
</clipPath>
</defs>
</svg>
