<svg width="128" height="128" viewBox="0 0 128 128" fill="none" xmlns="http://www.w3.org/2000/svg">
<path fill-rule="evenodd" clip-rule="evenodd" d="M87.7393 68.8289L65.8743 40.9905C64.9532 39.7903 64.0499 39.5943 63.0605 40.8834L41.1617 68.7836L62.3571 88.019L64.4155 43.9494L66.4738 88.019L87.7393 68.8289Z" fill="url(#paint0_linear_96_20)"/>
<path d="M103.266 97.6001L125.488 49.9849C125.965 48.9419 124.826 47.8997 123.836 48.4723L90.6081 67.6488L69.0101 92.0794L103.266 97.6001Z" fill="url(#paint1_linear_96_20)"/>
<path d="M25.5338 97.6001L3.31199 49.9849C2.83531 48.9419 3.97369 47.8997 4.96414 48.4723L38.1919 67.6488L59.7899 92.0794L25.5338 97.6001Z" fill="url(#paint2_linear_96_20)"/>
<defs>
<linearGradient id="paint0_linear_96_20" x1="64.2865" y1="88.019" x2="64.2865" y2="40" gradientUnits="userSpaceOnUse">
<stop stop-color="#0D6CE9"/>
<stop offset="1" stop-color="#6DA7F2"/>
</linearGradient>
<linearGradient id="paint1_linear_96_20" x1="77.8487" y1="78.2266" x2="107.745" y2="95.1393" gradientUnits="userSpaceOnUse">
<stop stop-color="#0D6CE9"/>
<stop offset="1" stop-color="#6DA7F2"/>
</linearGradient>
<linearGradient id="paint2_linear_96_20" x1="50.9512" y1="78.2266" x2="21.0555" y2="95.1393" gradientUnits="userSpaceOnUse">
<stop stop-color="#0D6CE9"/>
<stop offset="1" stop-color="#6DA7F2"/>
</linearGradient>
</defs>
</svg>
