<svg width="139" height="28" viewBox="0 0 139 28" fill="none" xmlns="http://www.w3.org/2000/svg">
    <path fill-rule="evenodd" clip-rule="evenodd"
        d="M39.6278 14.0136L29.3786 0.964307C28.9468 0.401696 28.5234 0.309814 28.0596 0.914091L17.7946 13.9923L27.7299 23.0089L28.6948 2.35127L29.6596 23.0089L39.6278 14.0136Z"
        fill="rgb(44, 104, 231)" />
    <path
        d="M46.906 27.5L57.3225 5.18039C57.5459 4.69148 57.0123 4.20294 56.548 4.47136L40.9725 13.4603L30.8485 24.9122L46.906 27.5Z"
        fill="rgb(44, 104, 231)" />
    <path
        d="M10.469 27.5L0.0525208 5.18039C-0.170925 4.69148 0.362688 4.20294 0.826965 4.47136L16.4025 13.4603L26.5265 24.9122L10.469 27.5Z"
        fill="rgb(44, 104, 231)" />
    <path
        d="M81.7846 1.15482L78.521 12.4896L78.4909 12.5931H78.2145L78.1853 12.4877L75.091 1.15482H72.904L69.8304 12.4877L69.8022 12.5931H69.5041L69.474 12.4896L66.2311 1.15482H64.125L68.4614 16.0315H70.7565L73.8301 4.82797L73.8584 4.72348H74.1574L74.1865 4.82797L77.2601 16.0315H79.5553L83.8907 1.15482H81.7846Z"
        fill="rgb(44, 104, 231)" />
    <path
        d="M101.563 6.82448C103.152 6.82448 103.893 7.68717 103.893 9.54579V16.0313H105.821V9.3723C105.821 6.54747 104.547 5.05884 102.137 5.05884C100.591 5.05884 99.3755 5.69435 98.6223 6.89829L98.3948 7.26158L98.3628 6.83215L98.2453 5.27548H96.4344V16.0361H98.3619V10.027C98.3619 9.0809 98.6637 8.2786 99.2335 7.70731C99.8033 7.13601 100.611 6.82448 101.563 6.82448Z"
        fill="rgb(44, 104, 231)" />
    <path
        d="M116.462 0.504797V7.16094L116.203 6.76602C115.462 5.63205 114.238 5.03201 112.666 5.03201C111.227 5.03201 110.034 5.54387 109.208 6.512C108.383 7.48013 107.942 8.90836 107.942 10.6337C107.942 12.3591 108.379 13.7787 109.206 14.7613C110.034 15.7438 111.218 16.2451 112.645 16.2451C114.224 16.2451 115.465 15.6441 116.226 14.5092L116.451 14.1756L116.483 14.5782L116.6 16.0284H118.387V0.5L116.462 0.504797ZM115.583 13.4778C115 14.1267 114.14 14.4555 113.027 14.4555C111.939 14.4555 111.113 14.1315 110.57 13.4969C110.028 12.8624 109.763 11.9105 109.763 10.6548C109.763 9.37998 110.028 8.45018 110.573 7.81179C111.119 7.1734 111.952 6.85325 113.049 6.85325C114.146 6.85325 115.006 7.17819 115.588 7.81754C116.17 8.45689 116.464 9.40777 116.464 10.6366C116.464 11.8655 116.167 12.8288 115.583 13.4778Z"
        fill="rgb(44, 104, 231)" />
    <path
        d="M125.788 5.05418C124.135 5.05418 122.843 5.53345 121.948 6.492C121.053 7.45054 120.595 8.83469 120.595 10.6061C120.595 12.4129 121.065 13.823 121.998 14.7949C122.93 15.7669 124.244 16.2452 125.936 16.2452C128.554 16.2452 130.261 15.0413 130.776 12.85H128.895C128.425 13.9562 127.432 14.5179 125.932 14.5179C124.905 14.5179 124.083 14.2524 123.487 13.73C122.891 13.2076 122.547 12.4513 122.474 11.4831L122.462 11.3269H130.79C130.807 11.0067 130.825 10.5946 130.825 10.2581C130.825 8.61039 130.385 7.3173 129.516 6.41627C128.647 5.51523 127.394 5.05418 125.788 5.05418ZM128.869 9.90634H122.442L122.46 9.74626C122.57 8.76183 122.905 8.00554 123.457 7.50039C124.009 6.99524 124.779 6.73355 125.745 6.73355C127.767 6.73355 128.987 7.86368 129.01 9.75681V9.9025L128.869 9.90634Z"
        fill="rgb(44, 104, 231)" />
    <path
        d="M138.373 6.84565C138.575 6.84565 138.76 6.85907 138.938 6.87441V5.05317C137.029 5.08001 135.896 5.65801 135.164 6.97026L134.935 7.38244L134.784 5.26693H132.973V16.0276H134.9V10.2763C134.895 8.16269 136.229 6.84565 138.373 6.84565Z"
        fill="rgb(44, 104, 231)" />
    <path
        d="M91.5393 14.5505L91.7602 14.2447L91.9144 16.0276H93.557V8.67939C93.557 6.40956 91.8853 5.05418 89.0862 5.05418C87.7087 5.05418 86.5739 5.38488 85.8038 6.01272C85.0742 6.60606 84.6755 7.46971 84.6398 8.51549H86.445C86.5391 7.4122 87.4793 6.78244 89.0439 6.78244C90.7025 6.78244 91.6925 7.47642 91.6925 8.63818V9.75681H87.8112C86.6613 9.75681 85.7624 10.0338 85.1409 10.5802C84.5194 11.1266 84.2129 11.904 84.2129 12.9056C84.2129 13.9303 84.5495 14.7796 85.1861 15.3633C85.8226 15.9471 86.7346 16.25 87.8328 16.25C89.4068 16.2452 90.7598 15.6289 91.5393 14.5505ZM86.0135 12.8606C86.0135 11.7803 86.7487 11.1352 87.9814 11.1352H91.6925V11.972C91.6952 12.3506 91.6117 12.7247 91.4486 13.0649C91.2854 13.405 91.0471 13.7019 90.7523 13.9322C90.1458 14.4163 89.3128 14.6722 88.3434 14.6722C86.3162 14.6722 86.0135 13.5373 86.0135 12.8606Z"
        fill="rgb(44, 104, 231)" />
    <path
        d="M103.883 22.1875L104.798 22.0833L105.057 20.5521H105.889V22.0833H107.25V23.0208H105.889V25.7917C105.889 26.2708 106.065 26.5104 106.595 26.5104C106.814 26.5104 107.063 26.4687 107.24 26.4167V27.3646C107.011 27.4479 106.658 27.5 106.315 27.5C105.286 27.5 104.798 27.0104 104.798 25.9167V23.0208H103.883V22.1875Z"
        fill="rgb(44, 104, 231)" />
    <path
        d="M98.2157 24.7396C98.2157 23.125 98.995 21.9792 100.886 21.9792C102.393 21.9792 103.245 22.7083 103.328 23.9271H102.289C102.196 23.3229 101.759 22.9792 100.897 22.9792C99.7744 22.9792 99.234 23.5729 99.234 24.7396C99.234 25.9062 99.7744 26.5 100.897 26.5C101.759 26.5 102.196 26.1562 102.289 25.5521H103.328C103.245 26.7708 102.393 27.5 100.886 27.5C98.995 27.5 98.2157 26.3542 98.2157 24.7396Z"
        fill="rgb(44, 104, 231)" />
    <path
        d="M92.1371 24.7187C92.1371 22.9687 93.0828 21.9792 94.7454 21.9792C96.3664 21.9792 97.2809 22.9271 97.2809 24.5521C97.2809 24.7292 97.2705 24.9479 97.2601 25.1354H93.1971C93.2698 26.0312 93.8413 26.5312 94.8181 26.5312C95.5455 26.5312 96.0131 26.2604 96.2209 25.7292H97.2705C97.0419 26.8542 96.1794 27.5 94.8181 27.5C93.1243 27.5 92.1371 26.5104 92.1371 24.7187ZM94.7246 22.9271C93.8101 22.9271 93.2906 23.3958 93.1867 24.3125H96.2521C96.2417 23.4479 95.6806 22.9271 94.7246 22.9271Z"
        fill="rgb(44, 104, 231)" />
    <path
        d="M87.4095 27.3958H86.3288V22.0833H87.3471L87.4095 22.8958C87.794 22.2917 88.407 21.9792 89.1864 21.9792C90.4022 21.9792 91.0568 22.7187 91.0568 24.125V27.3958H89.9761V24.2083C89.9761 23.3646 89.654 22.9687 88.9058 22.9687C87.9914 22.9687 87.4095 23.5521 87.4095 24.4375V27.3958Z"
        fill="rgb(44, 104, 231)" />
    <path
        d="M81.2193 27.3958H80.1386V22.0833H81.157L81.2193 22.8958C81.6038 22.2917 82.2169 21.9792 82.9962 21.9792C84.212 21.9792 84.8667 22.7187 84.8667 24.125V27.3958H83.786V24.2083C83.786 23.3646 83.4638 22.9687 82.7157 22.9687C81.8012 22.9687 81.2193 23.5521 81.2193 24.4375V27.3958Z"
        fill="rgb(44, 104, 231)" />
    <path
        d="M76.4377 27.5C74.7751 27.5 73.8711 26.5208 73.8711 24.7396C73.8711 22.9583 74.7751 21.9792 76.4377 21.9792C78.1004 21.9792 79.0044 22.9583 79.0044 24.7396C79.0044 26.5208 78.1004 27.5 76.4377 27.5ZM74.8479 24.7396C74.8479 25.9583 75.3674 26.5521 76.4377 26.5521C77.508 26.5521 78.0276 25.9583 78.0276 24.7396C78.0276 23.5208 77.508 22.9271 76.4377 22.9271C75.3674 22.9271 74.8479 23.5208 74.8479 24.7396Z"
        fill="rgb(44, 104, 231)" />
    <path
        d="M66.375 23.75C66.375 21.3229 67.5908 20 69.8042 20C71.6538 20 72.7865 20.9062 72.9216 22.5H71.7681C71.6538 21.5729 70.9576 21.0625 69.8042 21.0625C68.2766 21.0625 67.4973 21.9687 67.4973 23.75C67.4973 25.5208 68.287 26.4375 69.8145 26.4375C70.9576 26.4375 71.6538 25.9271 71.7681 25H72.9216C72.7865 26.5833 71.6434 27.5 69.8042 27.5C67.5908 27.5 66.375 26.1771 66.375 23.75Z"
        fill="rgb(44, 104, 231)" />
</svg>