<svg width="332" height="70" viewBox="0 0 332 70" fill="none" xmlns="http://www.w3.org/2000/svg">
<path fill-rule="evenodd" clip-rule="evenodd" d="M93.9326 32.0321L69.6381 1.10058C68.6146 -0.233016 67.611 -0.450812 66.5117 0.981549L42.1797 31.9818L65.7302 53.3545L68.0172 4.3882L70.3042 53.3545L93.9326 32.0321Z" fill="url(#paint0_linear_123_79)"/>
<path d="M111.185 64L135.876 11.0943C136.405 9.93536 135.14 8.77733 134.04 9.4136L97.1201 30.7208L73.1223 57.8659L111.185 64Z" fill="url(#paint1_linear_123_79)"/>
<path d="M24.8153 64L0.124466 11.0943C-0.405186 9.93536 0.859676 8.77733 1.96018 9.4136L38.8799 30.7208L62.8777 57.8659L24.8153 64Z" fill="url(#paint2_linear_123_79)"/>
<path d="M193.86 1.55216L186.124 28.4199L186.053 28.6652H185.397L185.328 28.4153L177.994 1.55216H172.81L165.524 28.4153L165.457 28.6652H164.75L164.679 28.4199L156.992 1.55216H152L162.279 36.8153H167.719L175.005 10.2589L175.072 10.0112H175.78L175.849 10.2589L183.135 36.8153H188.575L198.852 1.55216H193.86Z" fill="url(#paint3_linear_123_79)"/>
<path d="M240.743 14.9914C244.509 14.9914 246.266 17.0363 246.266 21.4419V36.815H250.835V21.0306C250.835 14.3347 247.815 10.8061 242.102 10.8061C238.438 10.8061 235.557 12.3125 233.771 15.1663L233.232 16.0274L233.156 15.0095L232.878 11.3196H228.585V36.8263H233.154V22.5825C233.154 20.3399 233.87 18.4382 235.22 17.084C236.571 15.7298 238.485 14.9914 240.743 14.9914Z" fill="url(#paint4_linear_123_79)"/>
<path d="M276.058 0.0113716V15.7889L275.445 14.8528C273.687 12.1649 270.787 10.7425 267.061 10.7425C263.649 10.7425 260.82 11.9558 258.864 14.2507C256.907 16.5455 255.861 19.9309 255.861 24.0207C255.861 28.1105 256.898 31.4755 258.859 33.8044C260.82 36.1334 263.629 37.3217 267.009 37.3217C270.754 37.3217 273.696 35.8971 275.499 33.2069L276.031 32.4162L276.107 33.3705L276.386 36.8082H280.62V0L276.058 0.0113716ZM273.974 30.7621C272.592 32.3003 270.553 33.0796 267.917 33.0796C265.338 33.0796 263.379 32.3117 262.093 30.8075C260.807 29.3034 260.178 27.0472 260.178 24.0707C260.178 21.0488 260.807 18.8449 262.1 17.3317C263.392 15.8184 265.367 15.0595 267.968 15.0595C270.569 15.0595 272.606 15.8298 273.985 17.3453C275.365 18.8608 276.063 21.1147 276.063 24.0276C276.063 26.9404 275.358 29.2239 273.974 30.7621Z" fill="url(#paint5_linear_123_79)"/>
<path d="M298.163 10.7951C294.245 10.7951 291.183 11.9311 289.061 14.2033C286.94 16.4754 285.854 19.7563 285.854 23.9552C285.854 28.2381 286.969 31.5803 289.18 33.8843C291.39 36.1882 294.504 37.322 298.516 37.322C304.72 37.322 308.768 34.4682 309.987 29.2741H305.529C304.415 31.8962 302.061 33.2276 298.504 33.2276C296.071 33.2276 294.123 32.5982 292.71 31.36C291.297 30.1217 290.481 28.3289 290.309 26.0341L290.281 25.6638H310.02C310.06 24.9049 310.103 23.9279 310.103 23.1304C310.103 19.2246 309.06 16.1595 307 14.0237C304.941 11.888 301.97 10.7951 298.163 10.7951ZM305.467 22.2965H290.234L290.276 21.9171C290.537 19.5836 291.33 17.7909 292.638 16.5935C293.947 15.3961 295.772 14.7758 298.063 14.7758C302.855 14.7758 305.748 17.4547 305.801 21.9421V22.2874L305.467 22.2965Z" fill="url(#paint6_linear_123_79)"/>
<path d="M327.996 15.0415C328.473 15.0415 328.912 15.0734 329.333 15.1097V10.7927C324.809 10.8563 322.123 12.2264 320.389 15.3369L319.846 16.3139L319.487 11.2994H315.194V36.8061H319.763V23.1734C319.752 18.1634 322.912 15.0415 327.996 15.0415Z" fill="url(#paint7_linear_123_79)"/>
<path d="M216.982 33.3049L217.506 32.5801L217.871 36.8062H221.765V19.3882C221.765 14.0078 217.802 10.7951 211.167 10.7951C207.902 10.7951 205.212 11.579 203.387 13.0672C201.657 14.4736 200.712 16.5208 200.628 18.9997H204.907C205.13 16.3845 207.358 14.8917 211.067 14.8917C214.998 14.8917 217.345 16.5367 217.345 19.2905V21.9421H208.145C205.419 21.9421 203.289 22.5987 201.816 23.8938C200.342 25.1889 199.616 27.0316 199.616 29.4059C199.616 31.8348 200.414 33.8479 201.923 35.2316C203.431 36.6153 205.593 37.3333 208.196 37.3333C211.927 37.322 215.134 35.861 216.982 33.3049ZM203.884 29.2991C203.884 26.7385 205.627 25.2093 208.549 25.2093H217.345V27.1929C217.352 28.0904 217.154 28.9771 216.767 29.7834C216.38 30.5897 215.815 31.2934 215.117 31.8394C213.679 32.9868 211.704 33.5934 209.407 33.5934C204.601 33.5934 203.884 30.9032 203.884 29.2991Z" fill="url(#paint8_linear_123_79)"/>
<path d="M246.242 51.4074L248.409 51.1605L249.025 47.5309H250.996V51.1605H254.222V53.3827H250.996V59.9506C250.996 61.0864 251.414 61.6543 252.67 61.6543C253.188 61.6543 253.779 61.5556 254.198 61.4321V63.679C253.656 63.8765 252.818 64 252.005 64C249.567 64 248.409 62.8395 248.409 60.2469V53.3827H246.242V51.4074Z" fill="#02010F"/>
<path d="M232.808 57.4568C232.808 53.6296 234.655 50.9136 239.138 50.9136C242.709 50.9136 244.729 52.642 244.926 55.5309H242.463C242.241 54.0988 241.207 53.284 239.162 53.284C236.502 53.284 235.221 54.6914 235.221 57.4568C235.221 60.2222 236.502 61.6296 239.162 61.6296C241.207 61.6296 242.241 60.8148 242.463 59.3827H244.926C244.729 62.2716 242.709 64 239.138 64C234.655 64 232.808 61.284 232.808 57.4568Z" fill="#02010F"/>
<path d="M218.399 57.4074C218.399 53.2593 220.641 50.9136 224.582 50.9136C228.424 50.9136 230.592 53.1605 230.592 57.0124C230.592 57.4321 230.567 57.9506 230.542 58.3951H220.912C221.084 60.5185 222.439 61.7037 224.754 61.7037C226.478 61.7037 227.587 61.0617 228.079 59.8025H230.567C230.025 62.4691 227.981 64 224.754 64C220.739 64 218.399 61.6543 218.399 57.4074ZM224.532 53.1605C222.365 53.1605 221.133 54.2716 220.887 56.4445H228.153C228.129 54.3951 226.798 53.1605 224.532 53.1605Z" fill="#02010F"/>
<path d="M207.193 63.7531H204.631V51.1605H207.045L207.193 53.0864C208.104 51.6543 209.557 50.9136 211.405 50.9136C214.287 50.9136 215.838 52.6667 215.838 56V63.7531H213.277V56.1975C213.277 54.1975 212.513 53.2593 210.74 53.2593C208.572 53.2593 207.193 54.642 207.193 56.7407V63.7531Z" fill="#02010F"/>
<path d="M192.52 63.7531H189.958V51.1605H192.372L192.52 53.0864C193.431 51.6543 194.884 50.9136 196.732 50.9136C199.614 50.9136 201.165 52.6667 201.165 56V63.7531H198.604V56.1975C198.604 54.1975 197.84 53.2593 196.067 53.2593C193.899 53.2593 192.52 54.642 192.52 56.7407V63.7531Z" fill="#02010F"/>
<path d="M181.186 64C177.245 64 175.102 61.679 175.102 57.4568C175.102 53.2346 177.245 50.9136 181.186 50.9136C185.127 50.9136 187.27 53.2346 187.27 57.4568C187.27 61.679 185.127 64 181.186 64ZM177.417 57.4568C177.417 60.3457 178.649 61.7531 181.186 61.7531C183.723 61.7531 184.954 60.3457 184.954 57.4568C184.954 54.5679 183.723 53.1605 181.186 53.1605C178.649 53.1605 177.417 54.5679 177.417 57.4568Z" fill="#02010F"/>
<path d="M157.333 55.1111C157.333 49.358 160.215 46.2222 165.462 46.2222C169.846 46.2222 172.531 48.3704 172.851 52.1482H170.117C169.846 49.9506 168.196 48.7407 165.462 48.7407C161.841 48.7407 159.994 50.8889 159.994 55.1111C159.994 59.3086 161.866 61.4815 165.486 61.4815C168.196 61.4815 169.846 60.2716 170.117 58.0741H172.851C172.531 61.8272 169.821 64 165.462 64C160.215 64 157.333 60.8642 157.333 55.1111Z" fill="#02010F"/>
<rect x="259" y="44" width="73" height="26" rx="13" fill="#0D6CE9"/>
<path d="M268.34 64V50.06H272.4C274.72 50.06 276.513 50.6733 277.78 51.9C279.047 53.1267 279.68 54.8733 279.68 57.14C279.68 59.3533 279.053 61.0533 277.8 62.24C276.547 63.4133 274.74 64 272.38 64H268.34ZM270.92 61.62H272.12C273.173 61.62 274.067 61.4867 274.8 61.22C275.533 60.9533 276.093 60.4867 276.48 59.82C276.88 59.1533 277.08 58.2267 277.08 57.04C277.08 55.8933 276.887 54.9867 276.5 54.32C276.127 53.64 275.587 53.16 274.88 52.88C274.187 52.5867 273.347 52.44 272.36 52.44H270.92V61.62ZM281.817 64V50.06H291.097V52.38H284.397V55.7H290.657V58H284.397V61.68H291.097V64H281.817ZM293.379 64V50.06H297.159L300.839 60.18H300.379L304.039 50.06H307.819V64H305.239V53.08L305.479 53.12L301.859 62.78H299.359L295.739 53.12L295.959 53.08V64H293.379ZM316.628 64.32C315.308 64.32 314.141 64.02 313.128 63.42C312.128 62.8067 311.348 61.9533 310.788 60.86C310.228 59.7667 309.948 58.4933 309.948 57.04C309.948 55.5733 310.228 54.2933 310.788 53.2C311.348 52.1067 312.128 51.26 313.128 50.66C314.141 50.0467 315.308 49.74 316.628 49.74C317.961 49.74 319.128 50.0467 320.128 50.66C321.141 51.26 321.928 52.1067 322.488 53.2C323.048 54.2933 323.328 55.5733 323.328 57.04C323.328 58.4933 323.041 59.7667 322.468 60.86C321.908 61.9533 321.121 62.8067 320.108 63.42C319.108 64.02 317.948 64.32 316.628 64.32ZM316.608 61.84C317.461 61.84 318.188 61.6467 318.788 61.26C319.401 60.86 319.875 60.3 320.208 59.58C320.541 58.86 320.708 58.0133 320.708 57.04C320.708 56.0533 320.541 55.2 320.208 54.48C319.875 53.76 319.401 53.2067 318.788 52.82C318.188 52.42 317.461 52.22 316.608 52.22C315.795 52.22 315.075 52.4133 314.448 52.8C313.835 53.1867 313.361 53.74 313.028 54.46C312.708 55.18 312.548 56.04 312.548 57.04C312.548 58.0267 312.708 58.88 313.028 59.6C313.361 60.32 313.835 60.8733 314.448 61.26C315.075 61.6467 315.795 61.84 316.608 61.84Z" fill="white"/>
<defs>
<linearGradient id="paint0_linear_123_79" x1="67.8739" y1="53.3545" x2="67.8739" y2="0" gradientUnits="userSpaceOnUse">
<stop stop-color="#0D6CE9"/>
<stop offset="1" stop-color="#6DA7F2"/>
</linearGradient>
<linearGradient id="paint1_linear_123_79" x1="82.943" y1="42.474" x2="116.161" y2="61.2658" gradientUnits="userSpaceOnUse">
<stop stop-color="#0D6CE9"/>
<stop offset="1" stop-color="#6DA7F2"/>
</linearGradient>
<linearGradient id="paint2_linear_123_79" x1="53.057" y1="42.474" x2="19.8394" y2="61.2658" gradientUnits="userSpaceOnUse">
<stop stop-color="#0D6CE9"/>
<stop offset="1" stop-color="#6DA7F2"/>
</linearGradient>
<linearGradient id="paint3_linear_123_79" x1="241.291" y1="37.3333" x2="241.291" y2="0" gradientUnits="userSpaceOnUse">
<stop stop-color="#0D6CE9"/>
<stop offset="1" stop-color="#6DA7F2"/>
</linearGradient>
<linearGradient id="paint4_linear_123_79" x1="241.291" y1="37.3333" x2="241.291" y2="0" gradientUnits="userSpaceOnUse">
<stop stop-color="#0D6CE9"/>
<stop offset="1" stop-color="#6DA7F2"/>
</linearGradient>
<linearGradient id="paint5_linear_123_79" x1="241.291" y1="37.3333" x2="241.291" y2="0" gradientUnits="userSpaceOnUse">
<stop stop-color="#0D6CE9"/>
<stop offset="1" stop-color="#6DA7F2"/>
</linearGradient>
<linearGradient id="paint6_linear_123_79" x1="241.291" y1="37.3333" x2="241.291" y2="0" gradientUnits="userSpaceOnUse">
<stop stop-color="#0D6CE9"/>
<stop offset="1" stop-color="#6DA7F2"/>
</linearGradient>
<linearGradient id="paint7_linear_123_79" x1="241.291" y1="37.3333" x2="241.291" y2="0" gradientUnits="userSpaceOnUse">
<stop stop-color="#0D6CE9"/>
<stop offset="1" stop-color="#6DA7F2"/>
</linearGradient>
<linearGradient id="paint8_linear_123_79" x1="241.291" y1="37.3333" x2="241.291" y2="0" gradientUnits="userSpaceOnUse">
<stop stop-color="#0D6CE9"/>
<stop offset="1" stop-color="#6DA7F2"/>
</linearGradient>
</defs>
</svg>
